<svg xmlns="http://www.w3.org/2000/svg" viewBox="0 0 194.85 337.5"><defs><style>.cls-1{fill:#ff5c8d;}.cls-2{fill:#a00037;}.cls-3{fill:#d81b60;}</style></defs><title>borderbox-logo</title><g id="B"><polygon class="cls-1" points="129.9 150 64.95 187.5 129.9 225 129.9 300 64.95 337.5 0 300 0 75 64.95 37.5 129.9 75 129.9 150"/></g><g id="B_copy" data-name="B copy"><polygon class="cls-2" points="194.85 112.5 129.9 150 194.85 187.5 194.85 262.5 129.9 300 64.95 262.5 64.95 37.5 129.9 0 194.85 37.5 194.85 112.5"/></g><g id="Layer_4" data-name="Layer 4"><polygon class="cls-3" points="129.9 150 64.95 187.5 64.95 37.5 129.9 75 129.9 150"/><polygon class="cls-3" points="64.95 262.5 64.95 187.5 129.9 225 129.9 300 64.95 262.5"/></g></svg>